<svg width="9" height="9" viewBox="0 0 9 9" fill="none" xmlns="http://www.w3.org/2000/svg">
<path d="M4.88672 4.66992V4.63477C4.88672 4.26758 4.57227 3.34961 3.94336 1.88086C3.83398 1.62695 3.77734 1.5 3.77344 1.5L3.60352 1.89258C2.95508 3.4043 2.63086 4.32227 2.63086 4.64648C2.63086 4.70117 2.66406 4.73047 2.73047 4.73438C2.80078 4.73828 2.85352 4.74023 2.88867 4.74023L3.3457 4.75195H3.76172L3.80273 4.74609C4.52539 4.74609 4.88672 4.7207 4.88672 4.66992ZM0 7.79297C0 7.69531 0.111328 7.58203 0.333984 7.45312C0.556641 7.32422 0.720703 7.16016 0.826172 6.96094C0.931641 6.76172 1.08008 6.40234 1.27148 5.88281C1.46289 5.35938 1.72266 4.70117 2.05078 3.9082C2.38281 3.11523 2.64453 2.4043 2.83594 1.77539C3.03125 1.14258 3.16406 0.742188 3.23438 0.574219C3.39453 0.191406 3.62109 0 3.91406 0H4.07812C4.15234 0 4.24414 0.0410156 4.35352 0.123047C4.57617 0.291016 4.80859 0.650391 5.05078 1.20117C5.13281 1.38867 5.25586 1.71094 5.41992 2.16797C5.58398 2.62109 5.91211 3.50977 6.4043 4.83398C6.89648 6.1582 7.17188 6.87891 7.23047 6.99609C7.32812 7.19922 7.49414 7.36328 7.72852 7.48828C7.96289 7.60938 8.08008 7.70703 8.08008 7.78125C8.08008 7.94531 7.98242 8.04688 7.78711 8.08594C7.6543 8.11328 7.31836 8.12695 6.7793 8.12695L6.43945 8.13281C5.7168 8.13281 5.35547 8.03516 5.35547 7.83984C5.35547 7.80469 5.40039 7.7207 5.49023 7.58789C5.58398 7.45508 5.63086 7.28711 5.63086 7.08398C5.63086 6.88086 5.55664 6.58984 5.4082 6.21094C5.26367 5.83203 5.14062 5.59766 5.03906 5.50781C4.94141 5.41797 4.51758 5.37305 3.76758 5.37305C3.01758 5.37305 2.58008 5.41406 2.45508 5.49609C2.33008 5.57812 2.19531 5.79883 2.05078 6.1582C1.90625 6.51758 1.83398 6.81055 1.83398 7.03711C1.83398 7.25977 1.90234 7.45703 2.03906 7.62891C2.17969 7.80078 2.25 7.89062 2.25 7.89844C2.25 8.03906 2.00977 8.10938 1.5293 8.10938C1.05273 8.10938 0.677734 8.0918 0.404297 8.05664C0.134766 8.01758 0 7.92969 0 7.79297Z" fill="white"/>
</svg>
